<?xml version="1.0" encoding="UTF-8"?>
        <svg xmlns="http://www.w3.org/2000/svg" xmlns:xlink="http://www.w3.org/1999/xlink"
             width="90" height="90" viewBox="0 -900 900 900">

<defs>

</defs>

<line stroke="#84A1AE" stroke-width="6.0" x1="-50.0" x2="-50.0" y1="0" y2="-900" />
<line stroke="#84A1AE" stroke-width="6.0" x1="50.0" x2="50.0" y1="0" y2="-900" />
<line stroke="#84A1AE" stroke-width="6.0" x1="150.0" x2="150.0" y1="0" y2="-900" />
<line stroke="#84A1AE" stroke-width="6.0" x1="250.0" x2="250.0" y1="0" y2="-900" />
<line stroke="#84A1AE" stroke-width="6.0" x1="350.0" x2="350.0" y1="0" y2="-900" />
<line stroke="#84A1AE" stroke-width="6.0" x1="450.0" x2="450.0" y1="0" y2="-900" />
<line stroke="#84A1AE" stroke-width="6.0" x1="550.0" x2="550.0" y1="0" y2="-900" />
<line stroke="#84A1AE" stroke-width="6.0" x1="650.0" x2="650.0" y1="0" y2="-900" />
<line stroke="#84A1AE" stroke-width="6.0" x1="750.0" x2="750.0" y1="0" y2="-900" />
<line stroke="#84A1AE" stroke-width="6.0" x1="850.0" x2="850.0" y1="0" y2="-900" />
<line stroke="#84A1AE" stroke-width="6.0" x1="0" x2="900" y1="50.0" y2="50.0" />
<line stroke="#84A1AE" stroke-width="6.0" x1="0" x2="900" y1="-50.0" y2="-50.0" />
<line stroke="#84A1AE" stroke-width="6.0" x1="0" x2="900" y1="-150.0" y2="-150.0" />
<line stroke="#84A1AE" stroke-width="6.0" x1="0" x2="900" y1="-250.0" y2="-250.0" />
<line stroke="#84A1AE" stroke-width="6.0" x1="0" x2="900" y1="-350.0" y2="-350.0" />
<line stroke="#84A1AE" stroke-width="6.0" x1="0" x2="900" y1="-450.0" y2="-450.0" />
<line stroke="#84A1AE" stroke-width="6.0" x1="0" x2="900" y1="-550.0" y2="-550.0" />
<line stroke="#84A1AE" stroke-width="6.0" x1="0" x2="900" y1="-650.0" y2="-650.0" />
<line stroke="#84A1AE" stroke-width="6.0" x1="0" x2="900" y1="-750.0" y2="-750.0" />
<line stroke="#84A1AE" stroke-width="6.0" x1="0" x2="900" y1="-850.0" y2="-850.0" />
<rect fill="#84A1AE" height="70" rx="15" width="70" x="65" y="-135" />
<rect fill="#84A1AE" height="70" rx="15" width="70" x="65" y="-235" />
<rect fill="#84A1AE" height="70" rx="15" width="70" x="65" y="-335" />
<rect fill="#84A1AE" height="70" rx="15" width="70" x="65" y="-435" />
<rect fill="#84A1AE" height="70" rx="15" width="70" x="65" y="-535" />
<rect fill="#84A1AE" height="70" rx="15" width="70" x="65" y="-635" />
<rect fill="#84A1AE" height="70" rx="15" width="70" x="65" y="-735" />
<rect fill="#84A1AE" height="70" rx="15" width="70" x="65" y="-835" />
<rect fill="#84A1AE" height="70" rx="15" width="70" x="165" y="-135" />
<rect fill="#84A1AE" height="70" rx="15" width="70" x="165" y="-535" />
<rect fill="#84A1AE" height="70" rx="15" width="70" x="165" y="-835" />
<rect fill="#84A1AE" height="70" rx="15" width="70" x="265" y="-135" />
<rect fill="#84A1AE" height="70" rx="15" width="70" x="265" y="-835" />
<rect fill="#84A1AE" height="70" rx="15" width="70" x="365" y="-135" />
<rect fill="#84A1AE" height="70" rx="15" width="70" x="365" y="-335" />
<rect fill="#84A1AE" height="70" rx="15" width="70" x="365" y="-835" />
<rect fill="#84A1AE" height="70" rx="15" width="70" x="465" y="-135" />
<rect fill="#84A1AE" height="70" rx="15" width="70" x="465" y="-335" />
<rect fill="#84A1AE" height="70" rx="15" width="70" x="465" y="-635" />
<rect fill="#84A1AE" height="70" rx="15" width="70" x="465" y="-835" />
<rect fill="#84A1AE" height="70" rx="15" width="70" x="565" y="-135" />
<rect fill="#84A1AE" height="70" rx="15" width="70" x="565" y="-535" />
<rect fill="#84A1AE" height="70" rx="15" width="70" x="565" y="-635" />
<rect fill="#84A1AE" height="70" rx="15" width="70" x="565" y="-735" />
<rect fill="#84A1AE" height="70" rx="15" width="70" x="565" y="-835" />
<rect fill="#84A1AE" height="70" rx="15" width="70" x="665" y="-135" />
<rect fill="#84A1AE" height="70" rx="15" width="70" x="665" y="-735" />
<rect fill="#84A1AE" height="70" rx="15" width="70" x="665" y="-835" />
<rect fill="#84A1AE" height="70" rx="15" width="70" x="765" y="-135" />
<rect fill="#84A1AE" height="70" rx="15" width="70" x="765" y="-235" />
<rect fill="#84A1AE" height="70" rx="15" width="70" x="765" y="-335" />
<rect fill="#84A1AE" height="70" rx="15" width="70" x="765" y="-435" />
<rect fill="#84A1AE" height="70" rx="15" width="70" x="765" y="-535" />
<rect fill="#84A1AE" height="70" rx="15" width="70" x="765" y="-635" />
<rect fill="#84A1AE" height="70" rx="15" width="70" x="765" y="-735" />
<rect fill="#84A1AE" height="70" rx="15" width="70" x="765" y="-835" />
<circle cx="300" cy="-300" fill="#c1433c" r="35"> <animate attributeName="cy" dur="4.760000000000001s" keyTimes="0.0;0.0555555556;0.1111111111;0.1666666667;0.2222222222;0.2777777778;0.3333333333;0.3888888889;0.4444444444;0.5;0.5555555556;0.6111111111;0.6666666667;0.7222222222;0.7777777778;0.8333333333;0.8888888889;0.9444444444;1.0" repeatCount="indefinite" values="-300;-300;-400;-300;-400;-300;-400;-300;-400;-300;-400;-300;-400;-300;-400;-300;-400;-300;-300"/>
<animate attributeName="cx" dur="4.760000000000001s" keyTimes="0.0;0.0555555556;1.0" repeatCount="indefinite" values="300;300;300"/>
<animate attributeName="visibility" dur="4.760000000000001s" keyTimes="0.0;0.0555555556;1.0" repeatCount="indefinite" values="visible;visible;visible"/> </circle>
<circle cx="500" cy="-500" fill="#2e6f9e" r="35"> <animate attributeName="cy" dur="4.760000000000001s" keyTimes="0.0;0.0555555556;0.1111111111;0.1666666667;0.2222222222;0.2777777778;0.3333333333;0.3888888889;0.4444444444;0.5;0.5555555556;0.6111111111;0.6666666667;0.7222222222;0.7777777778;0.8333333333;0.8888888889;0.9444444444;1.0" repeatCount="indefinite" values="-500;-500;-400;-500;-400;-500;-400;-500;-400;-500;-400;-500;-400;-500;-400;-500;-400;-500;-500"/>
<animate attributeName="cx" dur="4.760000000000001s" keyTimes="0.0;0.0555555556;1.0" repeatCount="indefinite" values="500;500;500"/>
<animate attributeName="visibility" dur="4.760000000000001s" keyTimes="0.0;0.0555555556;1.0" repeatCount="indefinite" values="visible;visible;visible"/> </circle>
<circle cx="200" cy="-600" fill="none" r="35" stroke="#c1433c" stroke-width="10"> <animate attributeName="visibility" dur="4.760000000000001s" keyTimes="0.0;0.0555555556;1.0" repeatCount="indefinite" values="visible;visible;visible"/> </circle>
<circle cx="700" cy="-500" fill="none" r="35" stroke="#2e6f9e" stroke-width="10"> <animate attributeName="visibility" dur="4.760000000000001s" keyTimes="0.0;0.0555555556;1.0" repeatCount="indefinite" values="visible;visible;visible"/> </circle>
</svg>